<svg width="159" height="265" viewBox="0 0 159 265" fill="none" xmlns="http://www.w3.org/2000/svg">
<mask id="mask0_284_30" style="mask-type:luminance" maskUnits="userSpaceOnUse" x="0" y="0" width="159" height="265">
<path d="M158.273 0H0V264.689H158.273V0Z" fill="white"/>
</mask>
<g mask="url(#mask0_284_30)">
<path d="M92.2551 30.4826C89.1585 30.4832 86.188 29.2564 83.9942 27.0709C81.8005 24.8854 80.5624 21.9195 80.5513 18.823C80.5485 18.7844 80.5485 18.7457 80.5513 18.7072H77.7147C77.7216 18.7453 77.7242 18.7842 77.7224 18.823C77.7108 21.9203 76.4718 24.8867 74.277 27.0722C72.0822 29.2577 69.1105 30.4841 66.0131 30.4826C65.9417 30.4842 65.8703 30.4816 65.7992 30.4749V33.4803C65.8698 33.4803 65.9404 33.4803 66.0131 33.4803C69.0703 33.4766 72.0072 34.6706 74.1945 36.8064C76.3818 38.9422 77.6455 41.8498 77.7147 44.9061H80.5513C80.6197 41.8481 81.883 38.9385 84.0707 36.8007C86.2584 34.6629 89.1964 33.467 92.2551 33.4692C92.3312 33.4692 92.4062 33.4692 92.4757 33.4692V30.4749C92.4024 30.4819 92.3287 30.4845 92.2551 30.4826ZM79.1407 40.7538C78.4377 38.686 77.2564 36.8135 75.693 35.2885C74.1295 33.7636 72.2281 32.6294 70.1434 31.9781C72.2261 31.3261 74.1259 30.1928 75.6891 28.6699C77.2522 27.147 78.4347 25.2774 79.1407 23.2124C79.8455 25.2774 81.0265 27.1473 82.5883 28.671C84.15 30.1946 86.0486 31.3291 88.1303 31.9825C86.0469 32.6343 84.1468 33.7689 82.5846 35.2938C81.0225 36.8188 79.8425 38.691 79.1407 40.7582" fill="#DBAF46"/>
<path d="M158.255 77.1754C158.242 76.3372 158.212 75.4924 158.169 74.6564C158.126 73.8204 158.058 72.9877 157.996 72.154C157.933 71.3202 157.841 70.4996 157.75 69.6791C157.658 68.8586 157.547 68.0424 157.425 67.223C157.304 66.4035 157.171 65.5973 157.031 64.7889C156.89 63.9805 156.727 63.182 156.554 62.3813C156.381 61.5806 156.206 60.7932 156.003 60.0035C155.8 59.2138 155.608 58.4341 155.386 57.6533C155.164 56.8724 154.945 56.1004 154.705 55.3295C154.464 54.5586 154.209 53.7987 153.947 53.0388C153.684 52.2789 153.409 51.5234 153.119 50.7746C152.829 50.0257 152.54 49.2846 152.236 48.5457C151.933 47.8067 151.609 47.0799 151.285 46.352C150.96 45.6241 150.614 44.9051 150.262 44.1904C149.91 43.4757 149.553 42.7732 149.177 42.0718C148.801 41.3703 148.425 40.6733 148.032 39.9829C147.639 39.2925 147.242 38.6087 146.831 37.9326C146.42 37.2566 145.993 36.5904 145.563 35.9254C145.133 35.2604 144.695 34.613 144.239 33.959C143.784 33.3049 143.327 32.6741 142.863 32.0388C142.399 31.4036 141.913 30.776 141.429 30.1529C140.945 29.5298 140.444 28.9221 139.939 28.3188C139.434 27.7155 138.917 27.1178 138.395 26.5333C137.873 25.9487 137.34 25.362 136.799 24.7885C136.259 24.215 135.714 23.6492 135.155 23.0956C134.596 22.5419 134.035 21.9861 133.462 21.4512C132.888 20.9163 132.309 20.3803 131.719 19.8575C131.129 19.3347 130.529 18.8164 129.926 18.3135C129.323 17.8106 128.713 17.3154 128.092 16.8312C127.471 16.347 126.839 15.8629 126.206 15.3975C125.573 14.932 124.932 14.4666 124.286 14.0177C123.582 13.531 122.872 13.0568 122.154 12.595C121.383 12.0973 120.603 11.6113 119.814 11.137C119.019 10.6606 118.218 10.2062 117.412 9.76283C116.605 9.31947 115.792 8.88052 114.967 8.46474C114.142 8.04895 113.312 7.6453 112.467 7.25157C111.623 6.85784 110.779 6.48837 109.922 6.12663C109.065 5.76488 108.204 5.42299 107.33 5.09102C106.457 4.75905 105.58 4.44473 104.701 4.14916C103.822 3.85359 102.921 3.56463 102.02 3.29443C101.119 3.02422 100.216 2.77497 99.3035 2.53675C98.3914 2.29852 97.4694 2.07905 96.5463 1.87502C95.6232 1.67098 94.6934 1.48019 93.7571 1.31255C92.8207 1.14491 91.8701 0.975065 90.9271 0.837205C90.7484 0.807427 90.5643 0.783164 90.3856 0.758901C89.8738 0.691625 89.3577 0.623246 88.8416 0.561485C88.7169 0.552662 88.5923 0.522884 88.4622 0.512958C88.2725 0.485386 88.0695 0.469946 87.8776 0.451197C87.6857 0.432448 87.5026 0.407081 87.313 0.396052L87.0394 0.364069C86.9424 0.350834 86.8553 0.34532 86.7637 0.339805L86.7339 0.315542H86.5134C86.2928 0.291279 86.0722 0.278044 85.8516 0.258192C85.6785 0.247163 85.5075 0.228414 85.3355 0.2229C85.2863 0.214098 85.2365 0.209669 85.1866 0.209665C85.1584 0.203173 85.1295 0.199478 85.1006 0.198637H85.041C84.8624 0.179888 84.676 0.166653 84.4973 0.161139C84.1775 0.14239 83.8698 0.122538 83.5554 0.111509C83.5367 0.111509 83.5179 0.103789 83.4981 0.103789C83.3271 0.0927599 83.1496 0.0872455 82.9819 0.0795253C82.6731 0.0629821 82.3544 0.0497475 82.0357 0.0442331C81.9166 0.0365129 81.8151 0.0365129 81.6949 0.0365129C81.5747 0.0365129 81.4324 0.0254841 81.3078 0.0254841C81.1159 0.0254841 80.9262 0.0122495 80.7475 0.0122495H80.2314C79.9766 0.0122495 79.7306 0.0012207 79.4847 0.0012207C79.3689 0.0012207 79.2575 0.0012207 79.1406 0.0012207C79.0237 0.0012207 78.9057 0.0012207 78.7888 0.0012207C78.5428 0.0012207 78.2969 0.0122495 78.0421 0.0122495H77.526C77.3473 0.0122495 77.1554 0.0254841 76.9657 0.0254841C76.8411 0.0254841 76.7065 0.0254841 76.5764 0.0365129C76.4463 0.0475417 76.3558 0.0365129 76.2378 0.0442331C75.9191 0.0442331 75.597 0.0629821 75.2915 0.0795253C75.1239 0.0872455 74.9452 0.0927599 74.7721 0.103789C74.7555 0.103789 74.7368 0.111509 74.718 0.111509C74.4037 0.122538 74.096 0.141287 73.7762 0.160036C73.5975 0.160036 73.4111 0.178785 73.2325 0.197534H73.1707C73.1425 0.198518 73.1144 0.202211 73.0869 0.208562C73.037 0.208566 72.9871 0.212995 72.938 0.221797C72.7648 0.221797 72.5917 0.24606 72.4218 0.257089C72.2013 0.275838 71.9807 0.289073 71.7601 0.314439H71.5395L71.5098 0.338703C71.4182 0.338703 71.3311 0.349731 71.2307 0.362966L70.9605 0.39495C70.7708 0.405978 70.5789 0.430242 70.3947 0.448991C70.2106 0.46774 69.9999 0.485386 69.8124 0.512958C69.6856 0.523987 69.561 0.54825 69.4308 0.561485C68.9191 0.623246 68.4029 0.691625 67.8868 0.758901C67.7081 0.783164 67.5239 0.807427 67.3453 0.837205C66.4012 0.975065 65.4594 1.13498 64.5186 1.30483C63.5778 1.47467 62.6525 1.66216 61.7272 1.8673C60.8019 2.07243 59.8876 2.29742 58.97 2.52903C58.0524 2.76063 57.1546 3.01871 56.2569 3.28671C55.3592 3.55471 54.4636 3.83815 53.5758 4.14144C52.688 4.44473 51.8112 4.75795 50.9465 5.0833C50.0819 5.40865 49.2095 5.76268 48.3525 6.11891C47.4956 6.47514 46.6486 6.85232 45.8093 7.24385C44.97 7.63537 44.1351 8.03351 43.3102 8.45702C42.4852 8.88052 41.6713 9.30624 40.8651 9.75511C40.0589 10.204 39.2582 10.6529 38.463 11.1293C37.6678 11.6057 36.8936 12.0899 36.1227 12.5873C35.4003 13.0494 34.6889 13.5237 33.9908 14.01C33.3445 14.4589 32.7027 14.9221 32.0707 15.3897C31.4388 15.8574 30.8079 16.3393 30.1848 16.8235C29.5616 17.3076 28.954 17.8028 28.3507 18.3058C27.7474 18.8087 27.1496 19.3281 26.5574 19.8498C25.9651 20.3714 25.3883 20.9019 24.8148 21.4435C24.2413 21.985 23.6756 22.5287 23.1219 23.0878C22.5683 23.647 22.0124 24.2106 21.4775 24.7808C20.9426 25.351 20.4066 25.9333 19.8817 26.5255C19.3567 27.1178 18.8405 27.7078 18.3376 28.3111C17.8347 28.9144 17.334 29.5309 16.8476 30.1452C16.3613 30.7595 15.8793 31.3948 15.4139 32.0311C14.9485 32.6675 14.4808 33.3083 14.0287 33.959C13.5765 34.6097 13.1464 35.2659 12.7118 35.9254C12.2773 36.5849 11.8571 37.2621 11.4435 37.9326C11.0299 38.6032 10.6318 39.2936 10.2425 39.9829C9.85315 40.6722 9.47045 41.3681 9.09767 42.0718C8.7249 42.7754 8.36426 43.4812 8.01244 44.1904C7.66062 44.8995 7.32314 45.6241 6.99007 46.352C6.65699 47.0799 6.34378 47.8123 6.03497 48.5457C5.72616 49.2791 5.43169 50.0279 5.15266 50.7746C4.87364 51.5212 4.58799 52.2778 4.3233 53.0377C4.05861 53.7976 3.80715 54.5608 3.56893 55.3284C3.3307 56.096 3.098 56.8724 2.88404 57.6522C2.67008 58.4319 2.45612 59.2161 2.26753 60.0024C2.07893 60.7888 1.88593 61.585 1.71608 62.3802C1.54624 63.1754 1.39184 63.9816 1.24295 64.7878C1.09406 65.594 0.96833 66.409 0.849219 67.223C0.730108 68.0369 0.616511 68.8541 0.524972 69.6791C0.433433 70.5041 0.346305 71.3334 0.279029 72.154C0.211753 72.9745 0.148889 73.8237 0.110288 74.6564C0.0716873 75.4891 0.0319836 76.3372 0.018749 77.1754C0 77.7169 0 78.2518 0 78.7878V185.767C0.0241168 205.717 7.6056 224.916 21.2179 239.499C34.8302 254.083 53.4623 262.967 73.3626 264.364H73.3814C75.1752 264.573 76.9796 264.678 78.7855 264.679H78.877C78.963 264.679 79.0502 264.679 79.1362 264.679C79.2222 264.679 79.3016 264.679 79.3876 264.679H79.4792C81.2851 264.678 83.0895 264.573 84.8833 264.364H84.9021C104.802 262.967 123.434 254.083 137.047 239.499C150.659 224.916 158.241 205.717 158.265 185.767V78.7878C158.265 78.2518 158.257 77.7169 158.246 77.1754M156.136 93.6249V107.1C155.73 108.185 155.292 109.245 154.829 110.292C154.366 111.338 153.874 112.361 153.363 113.38C150.091 119.499 146.395 125.383 142.303 130.987C140.097 134.16 137.826 137.441 135.702 140.803C130.144 149.23 126.42 158.731 124.77 168.69C122.38 166.984 119.894 165.417 117.323 163.996C115.186 162.809 113.001 161.73 110.769 160.758C109.422 160.179 108.061 159.625 106.682 159.114C105.77 158.773 104.845 158.452 103.915 158.146C104.076 157.079 104.297 156.022 104.576 154.98C104.863 153.937 105.21 152.911 105.617 151.908C117.428 147.723 128.06 140.761 136.616 131.608C145.173 122.454 151.403 111.378 154.783 99.3124C155.305 97.4353 155.757 95.5428 156.138 93.6348M145.47 218.517C142.298 215.991 139.461 213.07 137.028 209.826C136.536 209.174 136.054 208.508 135.594 207.832C134.199 205.781 132.951 203.635 131.861 201.407C131.127 199.917 130.462 198.378 129.864 196.806C129.57 196.019 129.285 195.223 129.023 194.423C128.885 194.022 128.755 193.617 128.639 193.21C127.775 190.339 127.141 187.403 126.743 184.432C125.944 178.379 126.156 172.236 127.371 166.253C127.514 165.52 127.674 164.778 127.853 164.047C128.031 163.316 128.216 162.581 128.418 161.848C128.573 161.307 128.733 160.758 128.9 160.215C129.074 159.649 129.258 159.09 129.452 158.522C129.698 157.788 129.96 157.051 130.239 156.316C130.518 155.581 130.805 154.845 131.113 154.11C132.898 149.88 135.037 145.809 137.51 141.94C139.617 138.62 141.884 135.358 144.069 132.209C147.047 127.924 150.075 123.556 152.752 118.968C153.726 117.299 154.657 115.6 155.51 113.869C155.73 113.428 155.934 112.996 156.145 112.557V143.989L156.009 144.125C155.953 144.175 155.899 144.228 155.849 144.285C155.146 144.983 153.931 146.243 152.425 147.975C152.295 148.124 152.166 148.269 152.03 148.433C151.92 148.559 151.803 148.697 151.678 148.838C151.229 149.369 150.756 149.941 150.269 150.546C149.855 151.054 149.431 151.592 149 152.153C148.711 152.521 148.421 152.91 148.124 153.305C147.896 153.611 147.664 153.933 147.429 154.257C145.758 156.554 144.208 158.937 142.787 161.396C142.541 161.82 142.295 162.251 142.053 162.688C139.889 166.571 138.162 170.682 136.903 174.945C136.793 175.332 136.682 175.732 136.584 176.127C135.821 179.012 135.367 181.969 135.229 184.95C134.7 196.986 138.317 208.838 145.476 218.528M102.673 182.464C104.15 191.087 108.262 199.041 114.443 205.233L116.063 206.821C116.482 207.227 116.896 207.614 117.283 207.993C116.825 208.341 116.014 208.926 115.951 208.977C115.127 209.662 114.288 210.333 113.415 210.971C111.809 212.167 110.138 213.272 108.408 214.28C106.682 215.289 104.902 216.202 103.076 217.015C103.015 217.04 102.961 217.069 102.898 217.088C101.093 217.889 99.2583 218.578 97.3834 219.196C95.7876 219.707 94.1637 220.126 92.5197 220.451C88.535 221.309 85.8682 221.892 83.2301 227.208C81.4984 225.128 80.5509 222.506 80.5523 219.799C80.5494 219.76 80.5494 219.722 80.5523 219.683H77.7179C77.7207 219.722 77.7207 219.76 77.7179 219.799C77.7177 222.501 76.7724 225.117 75.0456 227.195C72.4086 221.879 69.7407 221.296 65.756 220.438C64.112 220.113 62.488 219.694 60.8923 219.182C59.0174 218.566 57.1833 217.876 55.3779 217.075C55.3161 217.056 55.2621 217.026 55.1992 217.002C53.3727 216.188 51.5918 215.275 49.8646 214.267C48.1356 213.259 46.4646 212.154 44.8597 210.958C43.9918 210.32 43.1525 209.649 42.3231 208.964C42.2613 208.912 41.4463 208.329 40.9919 207.979C41.379 207.601 41.7926 207.214 42.2117 206.808L43.8318 205.22C50.0133 199.029 54.1244 191.074 55.5996 182.451C56.7109 175.35 57.1033 168.155 56.7708 160.975C56.5387 155.618 54.8731 150.422 51.9479 145.929C40.3324 127.981 41.5412 98.1191 41.5467 97.8434C42.6815 83.1431 48.7893 72.723 59.6968 66.8414L59.7784 66.8524V66.7984C60.2946 66.5193 60.8195 66.2469 61.3533 65.9977C66.7231 63.5035 72.5498 62.1443 78.4689 62.0052V62.013C78.4767 62.013 78.555 62.0052 78.6895 62.0052C78.9101 62.0052 79.0601 62.0052 79.1384 62.013H79.1461C79.2244 62.0052 79.3788 62.0052 79.595 62.0052C79.7251 62.0052 79.8034 62.013 79.8089 62.013V62.0052C85.7281 62.144 91.5549 63.5032 96.9246 65.9977C97.4606 66.2491 97.9844 66.5193 98.5017 66.7984V66.8524L98.5833 66.8414C109.491 72.7219 115.593 83.142 116.727 97.85C116.727 98.1202 117.94 127.982 106.326 145.936C103.398 150.428 101.732 155.624 101.503 160.981C101.171 168.161 101.562 175.356 102.672 182.458M105.014 183.312C106.117 184.105 107.178 184.946 108.198 185.836C108.71 186.277 109.207 186.728 109.694 187.197C109.94 187.432 110.18 187.664 110.413 187.906C116.373 193.857 120.482 201.406 122.245 209.641C120.729 208.318 118.772 206.487 116.442 204.215C116.258 204.037 116.079 203.858 115.891 203.674C110.349 198.1 106.565 191.022 105.009 183.318M88.1346 232.948C86.0507 233.599 84.1501 234.733 82.5875 236.258C81.025 237.783 79.8447 239.656 79.1428 241.723C78.4397 239.655 77.258 237.782 75.6942 236.257C74.1303 234.732 72.2284 233.598 70.1433 232.948C72.2268 232.295 74.1274 231.162 75.691 229.638C77.2546 228.114 78.4371 226.243 79.1428 224.177C79.847 226.243 81.0282 228.113 82.5904 229.637C84.1527 231.161 86.0521 232.295 88.1346 232.948ZM36.0345 209.632C37.7955 201.396 41.9046 193.846 47.8651 187.896C48.0978 187.655 48.3382 187.423 48.5842 187.187C49.0705 186.719 49.569 186.27 50.0797 185.826C51.0965 184.938 52.1579 184.097 53.2637 183.302C51.7069 191.007 47.9231 198.084 42.3815 203.658C42.1974 203.842 42.0187 204.021 41.8301 204.2C39.5008 206.472 37.5421 208.3 36.0278 209.626M51.3579 149.14C49.9892 148.609 48.6338 148.044 47.3114 147.441C45.9891 146.838 44.6645 146.192 43.3808 145.518C42.7422 145.179 42.1014 144.831 41.465 144.479C41.1507 144.3 40.8375 144.121 40.5232 143.935C38.0271 142.481 35.6149 140.888 33.2982 139.163C33.0093 138.942 32.7192 138.733 32.438 138.511C19.7464 128.749 10.4564 115.234 5.88939 99.887C6.88198 99.7414 7.90215 99.5981 8.93003 99.4624C9.61934 99.3709 10.3097 99.2838 11.0079 99.2054C12.7548 98.9948 14.5305 98.8161 16.3238 98.686C21.1552 98.2652 26.0174 98.3506 30.8311 98.9408C30.9127 98.9518 30.9987 98.965 31.0858 98.976C31.2513 98.9948 31.4244 99.0191 31.602 99.0521C31.7795 99.0852 31.9648 99.1007 32.1622 99.1382C32.3597 99.1757 32.5494 99.1922 32.7545 99.2352C33.1526 99.3025 33.5662 99.3841 33.9853 99.4812C34.7268 99.6458 35.4555 99.8636 36.1657 100.133C36.4657 100.252 36.7557 100.379 37.0392 100.522C37.5838 100.787 38.0859 101.132 38.5292 101.545C38.6028 101.606 38.6707 101.674 38.7321 101.748C38.9969 102.022 39.2168 102.336 39.3839 102.678C39.5218 112.1 40.95 132.862 50.1635 147.088C50.3841 147.419 50.5881 147.764 50.7855 148.111C50.9829 148.457 51.1859 148.795 51.37 149.144M118.891 102.68C119.06 102.338 119.279 102.024 119.542 101.749C119.604 101.674 119.673 101.606 119.748 101.546C120.191 101.133 120.693 100.788 121.238 100.523C121.519 100.38 121.811 100.253 122.111 100.134C122.821 99.8647 123.55 99.6469 124.291 99.4823C124.711 99.3852 125.122 99.3036 125.522 99.2363C125.725 99.1933 125.923 99.1635 126.115 99.1393C126.306 99.115 126.496 99.0775 126.675 99.0532C126.853 99.029 127.027 98.9959 127.191 98.9771C127.277 98.9661 127.364 98.9529 127.446 98.9419C132.261 98.3516 137.124 98.2662 141.956 98.6871C143.747 98.8172 145.522 98.9959 147.269 99.2066C147.967 99.2849 148.656 99.372 149.343 99.4635C150.373 99.5988 151.387 99.7403 152.386 99.8881C148.765 112.079 142.14 123.164 133.118 132.126C130.823 134.407 128.387 136.54 125.824 138.513C125.54 138.734 125.251 138.949 124.962 139.165C122.647 140.891 120.235 142.484 117.739 143.937C117.425 144.124 117.112 144.302 116.797 144.481C116.162 144.833 115.52 145.181 114.882 145.52C113.594 146.194 112.282 146.843 110.951 147.443C109.62 148.043 108.273 148.612 106.905 149.142C107.089 148.793 107.286 148.447 107.489 148.108C107.692 147.77 107.895 147.419 108.111 147.086C117.325 132.859 118.753 112.098 118.888 102.676M152.478 56.7963H152.486C153.373 59.8249 154.068 62.9066 154.566 66.023C154.709 66.9156 154.836 67.8082 154.947 68.7008C155.858 75.9724 155.718 83.3372 154.53 90.5688C154.46 90.9769 154.395 91.3827 154.32 91.7886C154.171 92.6025 154.011 93.4087 153.841 94.2149C153.581 95.4215 153.292 96.6225 152.973 97.818C144.942 96.6357 135.709 95.6564 127.147 96.8254C126.871 96.8629 126.576 96.907 126.255 96.9556C126.076 96.9876 125.892 97.0129 125.703 97.0416C125.394 97.0934 125.076 97.1519 124.743 97.2092C124.391 97.2765 124.028 97.3504 123.661 97.4364C122.908 97.6129 122.167 97.8369 121.443 98.107C121.078 98.242 120.72 98.3963 120.372 98.5691C119.854 98.8217 119.362 99.1223 118.901 99.4668C118.887 98.858 118.873 98.3959 118.863 98.0948C118.863 97.9702 118.863 97.8743 118.863 97.8103V97.7166C118.744 96.1777 118.573 94.6998 118.351 93.283C118.184 92.2176 117.994 91.1941 117.778 90.2015C117.204 87.5655 116.392 84.9871 115.352 82.4979V82.1218C115.37 81.8126 115.407 81.5047 115.462 81.1998C115.545 80.7525 115.667 80.3133 115.827 79.8874C115.933 79.6035 116.054 79.3255 116.19 79.0547C116.758 77.952 117.499 76.9468 118.383 76.0769C118.485 75.9587 118.596 75.8482 118.714 75.746C119.053 75.4152 119.401 75.1053 119.761 74.8097C119.994 74.6068 120.239 74.4149 120.48 74.2362C120.601 74.1447 120.72 74.0575 120.843 73.966C121.089 73.7873 121.329 73.6142 121.576 73.4543C121.695 73.3726 121.817 73.2943 121.941 73.2138C122.179 73.0539 122.414 72.905 122.647 72.765C123.234 72.4076 123.794 72.0944 124.301 71.8286C126.304 70.7735 128.375 69.7364 130.517 68.7174C134.083 67.0189 137.832 65.3734 141.732 63.8018C141.971 63.7048 142.211 63.6044 142.457 63.5074C142.949 63.3044 143.45 63.0883 143.953 62.8611C144.71 62.5225 145.476 62.1519 146.228 61.7659C148.075 60.8438 149.774 59.6522 151.27 58.2301C151.719 57.793 152.124 57.3128 152.478 56.7963ZM123.889 16.443C132.284 22.5088 139.365 30.2107 144.705 39.0851C145.468 40.3454 146.191 41.6258 146.874 42.9265C147.323 43.7945 147.766 44.6768 148.192 45.5635C149.465 48.2251 150.578 50.9604 151.525 53.7546C151.506 53.8531 151.479 53.9498 151.443 54.0435C151.387 54.2548 151.31 54.4604 151.216 54.6578C151.131 54.8629 151.029 55.061 150.913 55.2501C150.765 55.499 150.601 55.7378 150.421 55.9648C150.242 56.192 150.045 56.4059 149.842 56.6265V56.6375C149.518 56.9674 149.177 57.28 148.82 57.5739C148.449 57.8772 148.062 58.1661 147.648 58.4418C147.112 58.8124 146.553 59.151 145.994 59.4697C144.727 60.1765 143.418 60.8077 142.077 61.3601C141.635 61.5464 141.252 61.6986 140.935 61.8222C140.148 62.1413 139.366 62.4633 138.589 62.7883C133.163 65.0503 128.034 67.4568 123.311 69.9405C123.119 70.0375 122.922 70.1489 122.719 70.2592C122.313 70.4798 121.888 70.7268 121.445 71.0059C121.002 71.2849 120.553 71.5716 120.095 71.8882C119.012 72.6339 117.996 73.4731 117.06 74.3961C116.481 74.9709 115.944 75.5864 115.453 76.2379C115.343 76.3791 115.25 76.5225 115.15 76.6681C114.597 77.4609 114.146 78.3197 113.807 79.2245C112.262 76.3307 110.317 73.669 108.029 71.318L107.605 70.8934C107.039 70.3199 106.46 69.7905 105.873 69.292C104.749 68.326 103.564 67.432 102.326 66.6153C101.736 66.2227 101.144 65.8576 100.554 65.5124C100.419 60.5726 102.629 55.7982 104.863 51.7352C105.137 51.2433 105.415 50.7503 105.701 50.264C105.842 50.018 105.99 49.7776 106.142 49.5361C106.363 49.16 106.597 48.7839 106.832 48.4166C107.067 48.0494 107.273 47.7185 107.493 47.3755C107.799 46.9024 108.113 46.4259 108.435 45.9583C109.709 44.0757 111.035 42.2339 112.338 40.4296C113.096 39.3774 113.873 38.3032 114.635 37.2213C115.397 36.1394 116.163 35.0409 116.897 33.9314L117.181 33.5013C118.109 32.1028 119.199 30.4584 120.235 28.6728C120.419 28.342 120.603 28.0177 120.787 27.688C122.745 24.1146 124.328 20.0924 123.883 16.4452M36.9223 15.0004C36.9346 14.9621 36.9508 14.9251 36.9708 14.8901C37.2446 14.4802 37.6226 14.1506 38.066 13.935C38.5071 13.656 38.9483 13.3836 39.3894 13.1156C40.2717 12.5796 41.175 12.0634 42.086 11.5572L42.2889 11.4469C49.0348 7.7636 56.2989 5.12138 63.8348 3.60985C64.4623 3.47971 65.0899 3.36391 65.7307 3.25252C66.3714 3.14113 67.0188 3.04187 67.6651 2.94922C67.8625 2.91945 68.0544 2.89518 68.2574 2.8632C68.5882 2.82019 68.9191 2.77717 69.25 2.74188L70.151 2.63159C70.5866 2.58307 71.0333 2.53454 71.5175 2.49043C71.6587 2.46616 71.8064 2.45844 71.9586 2.4419L72.0127 2.43418C72.2332 2.41763 72.4538 2.39889 72.6744 2.38565C72.895 2.37242 73.1045 2.35587 73.3262 2.33712C73.3505 2.33712 73.3836 2.33712 73.4122 2.32389L73.7431 2.30735C73.8457 2.29963 73.946 2.2886 74.0574 2.2886C74.2714 2.27536 74.4875 2.26103 74.7037 2.2511C74.9199 2.24117 75.1393 2.22132 75.3654 2.2136C75.747 2.20257 76.1308 2.18382 76.5124 2.17059C76.7396 2.17059 76.9668 2.15956 77.1885 2.15184C77.3429 2.15184 77.4973 2.15184 77.6462 2.15184C77.7951 2.15184 77.9462 2.15184 78.1006 2.15184C78.4524 2.15184 78.8042 2.15184 79.156 2.15184C79.5079 2.15184 79.8509 2.15184 80.2027 2.15184C80.3571 2.15184 80.5082 2.15184 80.6571 2.15184C80.806 2.15184 80.9604 2.15184 81.1148 2.15184C81.3353 2.15956 81.5636 2.16508 81.7908 2.17059C82.1724 2.18382 82.554 2.20257 82.9356 2.2136C83.1562 2.22132 83.3768 2.23235 83.5974 2.2511C83.8179 2.26985 84.0275 2.27536 84.2436 2.2886C84.3539 2.2886 84.4543 2.29963 84.558 2.30735L84.8888 2.32389C84.9186 2.33161 84.9506 2.33161 84.9748 2.33712C85.1954 2.35587 85.4105 2.3669 85.6266 2.38565C85.8428 2.4044 86.0678 2.41763 86.2884 2.43418L86.3424 2.4419C86.4913 2.45844 86.6369 2.46616 86.7836 2.49043C87.2699 2.53344 87.7144 2.58196 88.15 2.63159L89.0511 2.74188C89.382 2.77717 89.7128 2.82019 90.0437 2.8632C90.2466 2.89518 90.4385 2.92055 90.6359 2.94922C91.2822 3.04076 91.9285 3.14113 92.5704 3.25252C93.2123 3.36391 93.8387 3.47971 94.4662 3.60985C102.002 5.12229 109.265 7.76525 116.01 11.4491L116.213 11.5594C117.125 12.0656 118.023 12.5818 118.909 13.1178C119.351 13.388 119.792 13.6593 120.233 13.9372C120.679 14.1519 121.06 14.4816 121.336 14.8923C121.355 14.9278 121.371 14.9647 121.384 15.0026C121.688 15.7885 121.851 16.6218 121.866 17.4643C121.88 18.3541 121.79 19.2425 121.596 20.1112C121.386 21.0446 121.106 21.9607 120.758 22.8518C120.395 23.7827 119.976 24.6881 119.525 25.5759C119.311 26.0006 119.084 26.4197 118.854 26.831C118.713 27.0902 118.57 27.3428 118.424 27.5887C118.362 27.7078 118.294 27.8181 118.227 27.9295C118.086 28.1754 117.938 28.4214 117.786 28.6596C117.601 28.9574 117.423 29.2519 117.244 29.5364C117.065 29.8209 116.887 30.1022 116.708 30.3801C116.267 31.0617 115.835 31.7168 115.44 32.3112L115.155 32.7524C114.436 33.842 113.684 34.9273 112.921 35.9982C112.158 37.0691 111.392 38.1301 110.64 39.1767C110.309 39.6311 109.978 40.0932 109.647 40.5564C107.24 43.8028 105.03 47.1911 103.03 50.7029C100.831 54.7042 98.6583 59.3727 98.4664 64.3555L98.1355 64.19L97.8047 64.0224C94.4022 62.4233 90.806 61.274 87.1067 60.6035C86.6931 60.5274 86.2873 60.4546 85.8935 60.3928C84.9142 60.2329 84.0032 60.1226 83.197 60.0498C83.0371 60.0366 82.8783 60.0178 82.7239 60.0068C82.4151 59.9748 82.1184 59.9583 81.8471 59.9395C81.8127 59.9412 81.7782 59.9386 81.7445 59.9318C81.3684 59.9076 81.0298 59.8888 80.7276 59.8833C80.2027 59.859 79.7913 59.859 79.5023 59.859H78.8561C78.5671 59.859 78.1524 59.859 77.6308 59.8833C77.3275 59.8833 76.99 59.9076 76.6139 59.9318C76.5802 59.9386 76.5457 59.9412 76.5113 59.9395C76.2378 59.9583 75.9434 59.9748 75.6345 60.0068C75.4801 60.0178 75.3202 60.0366 75.1614 60.0498C74.3552 60.1226 73.4431 60.234 72.4649 60.3928C72.07 60.4546 71.6642 60.5285 71.2517 60.6035C67.5524 61.274 63.9562 62.4233 60.5537 64.0224L60.2229 64.19L59.892 64.3555C59.7001 59.3727 57.5252 54.7042 55.3283 50.7029C53.328 47.1911 51.1183 43.8028 48.711 40.5564C48.3801 40.0943 48.0493 39.6311 47.7129 39.1767C46.964 38.1301 46.1931 37.0691 45.4354 35.9982C44.6777 34.9273 43.9201 33.842 43.1988 32.7524L42.9175 32.3112C42.5227 31.7157 42.0926 31.0617 41.6492 30.3801C41.4706 30.1011 41.2919 29.8176 41.1132 29.5364C40.9346 29.2552 40.7559 28.9574 40.5717 28.6596C40.4228 28.4214 40.2739 28.1754 40.1306 27.9295C40.0633 27.8192 39.9949 27.7089 39.9331 27.5887C39.7843 27.3428 39.6442 27.0913 39.503 26.831C39.2736 26.4197 39.0453 26.0006 38.8292 25.5759C38.3803 24.6936 37.9612 23.7827 37.5983 22.8518C37.2502 21.9607 36.97 21.0446 36.7602 20.1112C36.5665 19.2425 36.4758 18.3541 36.4899 17.4643C36.5049 16.6218 36.668 15.7885 36.9719 15.0026M10.0814 45.5635C10.5061 44.6812 10.9494 43.7989 11.3983 42.9265C12.0832 41.6284 12.8023 40.3457 13.5677 39.0851C18.9077 30.2107 25.9884 22.5088 34.3834 16.443C33.9423 20.0891 35.5227 24.1124 37.4803 27.6858C37.6645 28.0166 37.8509 28.3475 38.0318 28.6706C39.0674 30.4562 40.1581 32.1006 41.0857 33.4991L41.3702 33.9292C42.1036 35.0387 42.8602 36.1349 43.6322 37.2191C44.4042 38.3032 45.1763 39.3752 45.9284 40.4274C47.232 42.2317 48.5577 44.0735 49.8315 45.9561C50.1536 46.4237 50.4668 46.9002 50.7734 47.3733C50.9939 47.7167 51.2145 48.0637 51.4351 48.4144C51.67 48.7828 51.906 49.1589 52.1244 49.5339C52.2733 49.7743 52.4222 50.0158 52.5656 50.2618C52.8545 50.7492 53.1313 51.2411 53.4037 51.733C55.6382 55.796 57.8484 60.5704 57.7127 65.5102C57.1227 65.8543 56.5304 66.2194 55.9404 66.6131C54.7047 67.4314 53.5219 68.3269 52.399 69.2942C51.8123 69.7916 51.2333 70.3221 50.6675 70.8956L50.2429 71.3202C47.955 73.6712 46.0099 76.3329 44.4649 79.2267C44.1259 78.3219 43.675 77.4631 43.1227 76.6703C43.0223 76.5247 42.9253 76.3813 42.8194 76.2401C42.3284 75.5886 41.7914 74.9731 41.2125 74.3983C40.276 73.4753 39.2604 72.6361 38.1774 71.8904C37.7197 71.5716 37.2653 71.2761 36.8274 71.0081C36.3896 70.7401 35.9595 70.4831 35.5536 70.2614C35.3507 70.1511 35.1533 70.0408 34.9614 69.9427C30.2377 67.459 25.1093 65.0514 19.6831 62.7905C18.9067 62.4662 18.124 62.1442 17.3351 61.8244C17.0208 61.6997 16.6403 61.5486 16.1958 61.3623C14.8539 60.8099 13.5458 60.1787 12.2784 59.4719C11.7181 59.1532 11.159 58.8102 10.6241 58.444C10.2105 58.1683 9.82337 57.8783 9.4528 57.5761C9.09575 57.2822 8.75449 56.9696 8.43043 56.6397V56.6287C8.2275 56.4081 8.03008 56.1964 7.85142 55.967C7.67079 55.7407 7.50641 55.5018 7.35953 55.2523C7.24301 55.0632 7.1416 54.8651 7.05624 54.66C6.96093 54.462 6.88521 54.2552 6.83015 54.0424C6.79459 53.9487 6.76728 53.852 6.74853 53.7535C7.69561 50.9593 8.80855 48.2251 10.0814 45.5635ZM3.32409 68.6953C3.43437 67.8031 3.56782 66.9098 3.70789 66.0175C4.20693 62.9014 4.90165 59.8197 5.78792 56.7908C6.14498 57.3069 6.55127 57.787 7.00109 58.2246C8.49782 59.6476 10.198 60.84 12.0457 61.7626C12.7978 62.1497 13.561 62.5203 14.3209 62.8578C14.8238 63.085 15.3245 63.2989 15.8164 63.5041C16.0624 63.6011 16.3006 63.7015 16.541 63.7985C20.4419 65.3701 24.1906 67.0145 27.7562 68.7141C29.8988 69.7309 31.97 70.768 33.9699 71.8253C34.4761 72.09 35.0352 72.4043 35.6242 72.7617C35.8569 72.9028 36.0918 73.0506 36.33 73.2105C36.4547 73.2921 36.576 73.3704 36.6951 73.451C36.941 73.6109 37.1793 73.7818 37.4285 73.9627C37.5498 74.0542 37.6667 74.1413 37.7914 74.2329C38.0318 74.4116 38.2777 74.6035 38.5104 74.8064C38.8678 75.1009 39.2196 75.4097 39.5571 75.7427C39.6752 75.8449 39.7858 75.9554 39.8879 76.0736C40.7716 76.9443 41.512 77.9493 42.0816 79.0514C42.2174 79.3222 42.3385 79.6002 42.4444 79.8841C42.603 80.3104 42.7251 80.7495 42.8095 81.1965C42.8643 81.5014 42.9011 81.8093 42.9198 82.1185V82.4968C41.8796 84.986 41.0675 87.5644 40.4934 90.2004C40.2728 91.193 40.0876 92.2154 39.9199 93.2819C39.6993 94.6965 39.5288 96.1744 39.4082 97.7155V97.8015C39.4082 97.8688 39.4082 97.9614 39.4082 98.086C39.3949 98.386 39.3839 98.8492 39.3707 99.458C38.909 99.1141 38.4165 98.8135 37.8994 98.5603C37.5504 98.3884 37.193 98.2342 36.8285 98.0982C36.1046 97.8287 35.3646 97.6048 34.6128 97.4276C34.2423 97.3416 33.8794 97.2677 33.5276 97.2004C33.1967 97.1386 32.8725 97.0846 32.567 97.0328C32.3751 97.003 32.1909 96.9787 32.0156 96.9467C31.6935 96.8982 31.399 96.8552 31.1233 96.8166C22.5617 95.6475 13.3294 96.6269 5.29714 97.8092C4.97804 96.6137 4.68872 95.4126 4.42917 94.2061C4.25823 93.3999 4.09831 92.5937 3.95052 91.7797C3.87442 91.3739 3.80935 90.968 3.73987 90.56C2.55385 83.3283 2.41271 75.9638 3.32078 68.692M2.13739 93.6249C2.51898 95.5365 2.9708 97.4291 3.49283 99.3025C6.87232 111.368 13.1029 122.444 21.6594 131.598C30.2159 140.751 40.8476 147.714 52.6582 151.898C53.0653 152.901 53.4129 153.927 53.6993 154.97C53.9799 156.012 54.2009 157.069 54.361 158.136C53.4335 158.439 52.5082 158.763 51.5961 159.104C50.2164 159.616 48.8555 160.169 47.5088 160.748C45.2773 161.72 43.0925 162.799 40.9544 163.987C38.3843 165.407 35.898 166.974 33.5078 168.68C31.858 158.721 28.1336 149.22 22.576 140.793C20.4529 137.436 18.1799 134.155 15.973 130.977C11.8803 125.375 8.18359 119.494 4.91003 113.377C4.39829 112.363 3.90641 111.333 3.4443 110.289C2.98219 109.246 2.54325 108.182 2.13739 107.098V93.6249ZM2.13739 112.55C2.34583 112.991 2.55648 113.424 2.77264 113.863C3.62738 115.594 4.55821 117.293 5.52985 118.961C8.20765 123.549 11.2373 127.918 14.2128 132.203C16.3988 135.351 18.6652 138.614 20.7706 141.933C23.2437 145.802 25.3836 149.873 27.1673 154.104C27.4728 154.837 27.7628 155.575 28.0408 156.309C28.3187 157.044 28.5823 157.786 28.8282 158.515C29.0201 159.083 29.2043 159.643 29.3797 160.208C29.5473 160.752 29.7105 161.301 29.8583 161.841C30.0642 162.577 30.2535 163.31 30.4263 164.041C30.605 164.771 30.7649 165.512 30.9083 166.246C32.1225 172.229 32.3346 178.373 31.5358 184.425C31.1386 187.397 30.5035 190.333 29.6366 193.203C29.5208 193.609 29.3907 194.015 29.255 194.416C28.9926 195.217 28.7036 196.012 28.4135 196.799C27.8158 198.371 27.1507 199.911 26.4173 201.401C25.3248 203.627 24.0773 205.774 22.6841 207.825C22.2216 208.501 21.7437 209.166 21.2503 209.819C18.8159 213.063 15.9778 215.984 12.8045 218.511C19.9623 208.823 23.579 196.973 23.0502 184.939C22.9111 181.958 22.4568 179.001 21.6948 176.116C21.5944 175.721 21.4841 175.321 21.3761 174.934C20.1169 170.671 18.3895 166.56 16.2256 162.677C15.9874 162.236 15.7392 161.809 15.4922 161.385C14.0707 158.926 12.5212 156.543 10.8502 154.246C10.6152 153.922 10.3825 153.6 10.152 153.294C9.85756 152.899 9.5675 152.51 9.27855 152.142C8.84842 151.581 8.42381 151.039 8.01023 150.535C7.52386 149.929 7.04962 149.358 6.60075 148.827C6.47612 148.686 6.36032 148.548 6.24893 148.422C6.11327 148.259 5.98424 148.113 5.8541 147.964C4.34425 146.232 3.13329 144.972 2.42965 144.274C2.37979 144.217 2.32638 144.164 2.26973 144.114L2.13408 143.978L2.13739 112.55ZM2.13739 185.782V173.529C2.219 173.601 2.2973 173.689 2.38333 173.775C5.91255 177.414 14.7753 189.626 8.18559 215.617C4.18428 206.178 2.12722 196.029 2.13739 185.777M10.3671 220.316C10.3299 220.25 10.2975 220.182 10.27 220.111L10.4355 220.273C10.4117 220.285 10.3892 220.3 10.3682 220.316M10.3869 218.117C10.2954 218.238 10.2028 218.35 10.1167 218.456C9.9491 218.659 9.80793 218.826 9.69764 218.956C9.66014 218.865 9.61603 218.77 9.57302 218.686C9.71639 218.18 9.85168 217.681 9.97888 217.187C10.634 214.726 11.1501 212.378 11.556 210.149C11.7104 209.257 11.8505 208.384 11.9806 207.531C12.5314 203.84 12.7587 200.108 12.66 196.377C12.6412 195.793 12.617 195.219 12.5784 194.659C12.3478 190.221 11.4153 185.847 9.81565 181.701C8.42702 178.017 6.27662 174.667 3.50496 171.871C3.43437 171.804 3.37482 171.741 3.30754 171.681L3.29982 171.674C3.20277 171.582 3.11013 171.495 3.0241 171.428C2.88293 171.301 2.75941 171.195 2.66125 171.109C2.57523 171.042 2.50685 170.979 2.44068 170.936C2.35465 170.868 2.30502 170.833 2.28627 170.82L2.13187 171.041V147.056C5.05089 150.206 7.7414 153.56 10.1829 157.092C10.3318 157.313 10.4862 157.534 10.6406 157.763C10.7377 157.912 10.8435 158.066 10.9461 158.225C11.1005 158.452 11.2549 158.687 11.4082 158.929C11.5869 159.199 11.7655 159.48 11.9442 159.754C12.1957 160.16 12.4504 160.565 12.7019 160.979C16.8542 167.79 20.5324 176.22 20.9062 185.035C21.2463 193.294 19.5586 201.511 15.9907 208.968C15.8308 209.306 15.672 209.638 15.5043 209.966C15.3367 210.293 15.1734 210.61 15.0124 210.917C14.8514 211.225 14.6816 211.534 14.5261 211.824C14.3706 212.114 14.2073 212.403 14.0397 212.682C13.9669 212.823 13.8853 212.958 13.8015 213.093C13.561 213.494 13.325 213.883 13.0978 214.251C12.9434 214.497 12.789 214.733 12.6434 214.961C12.4229 215.307 12.2023 215.622 11.9938 215.927C11.8582 216.13 11.7236 216.322 11.588 216.506V216.513C11.4578 216.698 11.3288 216.871 11.2064 217.035C10.8976 217.454 10.6219 217.807 10.3814 218.12M55.4 258.773C51.7573 257.606 48.208 256.165 44.7825 254.464C43.0786 253.62 41.4143 252.708 39.7887 251.745C39.2472 251.426 38.7034 251.101 38.1763 250.76C33.9134 248.089 29.9216 245.007 26.2574 241.56C25.803 241.13 25.3542 240.692 24.9108 240.248C19.5314 234.94 14.9655 228.868 11.3608 222.226C12.0699 221.735 12.7703 221.242 13.4441 220.72C15.1498 219.416 16.7665 218 18.2836 216.481C18.5924 216.173 18.8869 215.867 19.1901 215.559C20.0725 214.624 20.9283 213.65 21.7577 212.64C22.0334 212.302 22.3091 211.961 22.5639 211.618C23.0943 210.933 23.605 210.23 24.1079 209.516C24.6057 208.802 25.088 208.075 25.5549 207.335C26.4828 205.85 27.343 204.314 28.1356 202.729C28.5275 201.941 28.9054 201.14 29.2694 200.326C29.448 199.915 29.6234 199.507 29.791 199.096C30.4671 197.451 31.0792 195.763 31.6086 194.04C31.8659 193.177 32.1104 192.309 32.342 191.435C32.4523 190.994 32.5626 190.553 32.6607 190.112C32.8637 189.229 33.0479 188.332 33.2122 187.434C33.3765 186.536 33.5155 185.635 33.6368 184.723C34.2378 180.208 34.2915 175.636 33.7967 171.108V171.1C34.9867 170.227 36.2043 169.391 37.4362 168.587C39.081 167.515 40.7644 166.514 42.4863 165.581C42.9109 165.349 43.3466 165.121 43.7789 164.892C44.6469 164.443 45.5215 164.01 46.4082 163.594C48.6139 162.547 50.8848 161.616 53.1876 160.791C53.6497 160.632 54.1129 160.473 54.5805 160.313C54.5805 160.391 54.5938 160.473 54.5993 160.559C54.6103 160.724 54.6235 160.897 54.6291 161.062V161.069C54.6665 161.986 54.6908 162.985 54.7107 164.037C54.746 166.661 54.7107 169.677 54.5188 172.86C54.5188 172.871 54.5188 172.877 54.5188 172.885C54.4835 173.487 54.4401 174.095 54.3886 174.708C54.3401 175.327 54.2861 175.963 54.2232 176.598C54.1228 177.54 54.0125 178.481 53.8923 179.43C53.8493 179.744 53.8063 180.063 53.7567 180.376C53.4104 180.606 53.0674 180.834 52.7343 181.066C52.0582 181.533 51.3921 182.015 50.7491 182.513C45.605 186.486 41.3639 191.507 38.3064 197.243C35.249 202.979 33.445 209.3 33.0141 215.785C32.5831 222.271 33.535 228.774 35.8066 234.865C38.0782 240.955 41.6178 246.493 46.1909 251.112C46.5482 251.477 46.91 251.834 47.2805 252.177C50.2642 254.998 53.614 257.405 57.2396 259.333C56.6231 259.154 56.0143 258.962 55.4033 258.765M84.6892 262.238C84.6352 262.246 84.5921 262.246 84.5436 262.251C84.5264 262.254 84.509 262.254 84.4918 262.251C82.836 262.362 81.1651 262.417 79.4792 262.417C79.3689 262.417 79.252 262.417 79.1351 262.417H79.1274C79.0171 262.417 78.9002 262.417 78.7833 262.417C77.0922 262.417 75.4213 262.361 73.7707 262.251C73.7535 262.254 73.736 262.254 73.7188 262.251C73.6703 262.251 73.6273 262.251 73.5732 262.238C62.9505 260.969 53.1623 255.848 46.0632 247.844C38.9641 239.841 35.0473 229.511 35.0551 218.813C35.0598 216.823 35.198 214.836 35.4687 212.864C36.4105 212.145 37.6601 211.065 39.1986 209.645L39.2063 209.637C39.2811 209.598 39.351 209.551 39.4148 209.496C39.921 209.902 40.6401 210.524 41.1463 210.93C45.3311 214.386 49.9863 217.23 54.972 219.375C56.6606 220.095 58.391 220.75 60.1821 221.334C61.8549 221.869 63.5573 222.308 65.2807 222.647C69.2114 223.49 71.0079 223.872 73.2501 228.663C73.2815 228.724 73.3184 228.782 73.3604 228.836C71.2818 230.519 68.6877 231.437 66.013 231.435C65.9394 231.437 65.8657 231.435 65.7924 231.428V234.433C65.8597 234.433 65.9358 234.433 66.013 234.433C69.0706 234.431 72.0073 235.627 74.1945 237.763C76.3817 239.9 77.6456 242.808 77.7157 245.864H80.5534C80.6234 242.808 81.8873 239.9 84.0746 237.763C86.2618 235.627 89.1985 234.431 92.2561 234.433C92.3289 234.433 92.405 234.433 92.4766 234.433V231.428C92.4033 231.435 92.3297 231.437 92.2561 231.435C89.5837 231.44 86.9907 230.527 84.9109 228.849C84.951 228.794 84.9878 228.736 85.0212 228.676C87.2611 223.885 89.0599 223.504 92.9906 222.66C94.7139 222.321 96.4163 221.882 98.0892 221.347C99.8803 220.763 101.611 220.109 103.299 219.389C108.285 217.243 112.94 214.4 117.125 210.943C117.631 210.531 118.35 209.909 118.856 209.509C118.92 209.564 118.99 209.611 119.065 209.65L119.073 209.658C120.617 211.078 121.862 212.157 122.803 212.877C123.073 214.849 123.211 216.836 123.216 218.826C123.224 229.525 119.306 239.855 112.206 247.859C105.106 255.863 95.3162 260.983 84.6925 262.251M133.352 240.253C132.911 240.694 132.462 241.132 132.005 241.565C128.341 245.013 124.349 248.094 120.086 250.766C119.559 251.106 119.015 251.427 118.474 251.751C116.848 252.713 115.184 253.625 113.478 254.469C110.052 256.171 106.503 257.612 102.86 258.778C102.251 258.976 101.647 259.167 101.026 259.346C104.647 257.419 107.993 255.013 110.973 252.194C111.344 251.85 111.706 251.494 112.063 251.129C116.637 246.51 120.178 240.972 122.45 234.882C124.722 228.791 125.674 222.288 125.243 215.802C124.812 209.316 123.008 202.995 119.95 197.259C116.892 191.523 112.65 186.502 107.505 182.529C106.858 182.032 106.192 181.55 105.519 181.082C105.188 180.85 104.843 180.622 104.497 180.393C104.448 180.079 104.405 179.76 104.361 179.447C104.237 178.497 104.126 177.555 104.03 176.615C103.969 175.979 103.915 175.343 103.863 174.724C103.811 174.105 103.771 173.504 103.736 172.901C103.736 172.893 103.728 172.888 103.736 172.877C103.539 169.691 103.507 166.674 103.544 164.054C103.563 163.002 103.587 162.004 103.626 161.086V161.078C103.626 160.913 103.642 160.74 103.655 160.575C103.655 160.489 103.669 160.408 103.674 160.329C104.142 160.489 104.605 160.648 105.065 160.808C107.37 161.633 109.636 162.564 111.847 163.61C112.729 164.024 113.611 164.46 114.476 164.909C114.908 165.138 115.344 165.366 115.768 165.598C117.494 166.529 119.177 167.53 120.819 168.603C122.049 169.406 123.269 170.242 124.458 171.117V171.124C123.968 175.646 124.024 180.21 124.626 184.717C124.747 185.629 124.89 186.535 125.05 187.428C125.21 188.322 125.402 189.222 125.602 190.106C125.699 190.547 125.81 190.988 125.92 191.43C126.151 192.303 126.395 193.171 126.654 194.035C127.184 195.758 127.79 197.443 128.471 199.09C128.637 199.502 128.816 199.91 128.993 200.321C129.361 201.135 129.739 201.936 130.127 202.723C130.916 204.305 131.777 205.841 132.708 207.33C133.175 208.065 133.658 208.792 134.155 209.51C134.661 210.225 135.171 210.927 135.699 211.612C135.956 211.956 136.226 212.297 136.505 212.635C137.33 213.643 138.186 214.617 139.072 215.554C139.376 215.863 139.67 216.168 139.979 216.476C141.495 217.996 143.112 219.411 144.818 220.714C145.492 221.236 146.193 221.729 146.902 222.221C143.297 228.862 138.731 234.935 133.352 240.242M147.91 220.313C147.889 220.296 147.866 220.282 147.842 220.27L148.008 220.108C147.98 220.178 147.948 220.247 147.911 220.313M148.581 218.957C148.471 218.827 148.33 218.66 148.162 218.457C148.076 218.346 147.984 218.236 147.892 218.118C147.652 217.809 147.376 217.456 147.067 217.033C146.942 216.868 146.812 216.694 146.686 216.511V216.497C146.55 216.313 146.415 216.121 146.28 215.918C146.069 215.618 145.852 215.298 145.63 214.952C145.484 214.725 145.33 214.49 145.176 214.243C144.948 213.874 144.714 213.485 144.472 213.085C144.386 212.949 144.307 212.814 144.234 212.673C144.066 212.394 143.903 212.111 143.747 211.815C143.592 211.52 143.417 211.225 143.261 210.909C143.106 210.592 142.93 210.281 142.769 209.957C142.608 209.633 142.438 209.295 142.283 208.959C138.715 201.502 137.027 193.285 137.367 185.026C137.738 176.21 141.419 167.782 145.572 160.97C145.823 160.557 146.075 160.151 146.329 159.745C146.508 159.466 146.687 159.193 146.865 158.92C147.02 158.679 147.174 158.443 147.327 158.216C147.43 158.056 147.536 157.902 147.633 157.754C147.787 157.527 147.942 157.305 148.091 157.084C150.532 153.551 153.223 150.197 156.142 147.047V171.025L155.987 170.805C155.968 170.818 155.92 170.853 155.833 170.92C155.771 170.963 155.703 171.031 155.612 171.094C155.515 171.18 155.392 171.285 155.249 171.412C155.163 171.48 155.071 171.567 154.97 171.658V171.666C154.903 171.725 154.84 171.787 154.773 171.856C152.001 174.652 149.851 178.001 148.462 181.686C146.864 185.83 145.933 190.202 145.705 194.638C145.668 195.198 145.643 195.772 145.623 196.356C145.523 200.087 145.751 203.819 146.303 207.51C146.43 208.368 146.573 209.236 146.725 210.128C147.133 212.357 147.651 214.705 148.305 217.166C148.432 217.659 148.567 218.159 148.71 218.665C148.667 218.749 148.624 218.844 148.586 218.935M156.149 185.752C156.159 196.004 154.102 206.153 150.101 215.591C143.511 189.601 152.382 177.388 155.903 173.749C155.989 173.663 156.069 173.576 156.149 173.503V185.752Z" fill="#DBAF46"/>
<path d="M100.731 146.351C100.732 146.493 100.706 146.634 100.653 146.765C100.6 146.897 100.521 147.017 100.422 147.118C100.322 147.219 100.204 147.299 100.073 147.353C99.942 147.408 99.8016 147.436 99.6598 147.437H99.6025C96.6656 147.388 93.776 146.69 91.1411 145.392C90.6548 145.165 90.1563 144.924 89.6589 144.683C86.9605 143.208 84.063 142.13 81.0564 141.484C81.0266 141.484 80.9891 141.473 80.9593 141.466C80.4607 141.393 79.9585 141.348 79.455 141.33C79.3524 141.33 79.2466 141.33 79.1407 141.33C79.0348 141.33 78.9201 141.33 78.8021 141.33C78.3048 141.348 77.8089 141.393 77.3165 141.466L77.2007 141.484C74.1995 142.137 71.3065 143.214 68.6093 144.683C68.1119 144.923 67.6112 145.165 67.127 145.392C64.491 146.69 61.6003 147.388 58.6624 147.437H58.6083C58.3224 147.437 58.0482 147.323 57.846 147.121C57.6438 146.919 57.5303 146.644 57.5303 146.359C57.5303 146.073 57.6438 145.798 57.846 145.596C58.0482 145.394 58.3224 145.28 58.6083 145.28C58.6244 145.283 58.6408 145.283 58.6569 145.28C61.2765 145.233 63.853 144.605 66.2017 143.444C66.6836 143.211 67.1755 142.977 67.6674 142.744C70.43 141.26 73.3772 140.15 76.432 139.442C76.4563 139.434 76.4805 139.423 76.5103 139.414C77.2624 139.27 78.0254 139.19 78.7911 139.176H79.4727C80.2383 139.19 81.0013 139.27 81.7534 139.414C81.7832 139.422 81.8075 139.433 81.8317 139.442C84.8848 140.149 87.8303 141.258 90.5908 142.742C91.0827 142.974 91.5757 143.209 92.0543 143.442C94.4032 144.603 96.9796 145.23 99.5991 145.278C99.6163 145.281 99.6338 145.281 99.651 145.278C99.792 145.278 99.9317 145.305 100.062 145.359C100.193 145.412 100.311 145.491 100.411 145.591C100.511 145.69 100.59 145.808 100.645 145.938C100.699 146.069 100.727 146.208 100.727 146.349" fill="#DBAF46"/>
<path d="M93.0813 119.105C91.7616 118.585 90.5855 117.757 89.6513 116.689L89.2212 116.283C88.3532 115.464 87.4114 114.595 86.432 113.784L86.1287 113.533C85.4015 112.8 84.4701 112.304 83.4564 112.11C82.2271 111.986 80.9885 112.226 79.8941 112.799C79.3146 113.019 78.6748 113.019 78.0953 112.799C77.0016 112.226 75.7638 111.987 74.5352 112.11C73.5219 112.306 72.5909 112.801 71.8629 113.533L71.5629 113.784C70.5836 114.596 69.6395 115.464 68.7716 116.283L68.3414 116.689C67.4078 117.757 66.2315 118.585 64.9115 119.105C64.6834 119.165 64.4825 119.301 64.341 119.49C64.1995 119.679 64.1256 119.91 64.1312 120.146C64.1368 120.382 64.2215 120.609 64.3719 120.791C64.5222 120.973 64.7293 121.099 64.96 121.149C65.1629 121.192 65.3603 121.246 65.5578 121.298C66.3527 121.561 67.1941 121.653 68.0271 121.568C68.8154 121.429 69.5869 121.207 70.3288 120.907C70.6266 120.796 70.9211 120.686 71.2111 120.592L71.5199 120.492C72.6508 120.104 73.8021 119.778 74.9686 119.516C75.4461 119.426 75.9299 119.373 76.4156 119.359C77.2648 119.319 78.1229 119.276 78.9909 119.276C79.8588 119.276 80.7136 119.319 81.5639 119.359C82.0496 119.373 82.5334 119.426 83.0109 119.516C84.1775 119.778 85.3289 120.103 86.4596 120.492L86.7684 120.592C87.0628 120.684 87.3606 120.795 87.6507 120.907C88.3927 121.207 89.1642 121.429 89.9524 121.568C90.7894 121.655 91.6351 121.563 92.4339 121.298C92.6313 121.246 92.8287 121.188 93.0316 121.149C93.2631 121.1 93.4711 120.974 93.6222 120.792C93.7733 120.61 93.8585 120.383 93.8641 120.146C93.8697 119.91 93.7954 119.678 93.6531 119.489C93.5109 119.3 93.3101 119.165 93.0813 119.105ZM88.3521 119.062C88.0213 118.937 87.7058 118.821 87.3783 118.715L87.0695 118.618C85.8704 118.208 84.6494 117.865 83.4123 117.59C82.8345 117.482 82.2495 117.416 81.662 117.393C80.7886 117.35 79.8974 117.307 78.9975 117.307C78.0975 117.307 77.2042 117.35 76.3307 117.393C75.7432 117.416 75.1583 117.482 74.5804 117.59C73.3434 117.865 72.1225 118.209 70.9233 118.618L70.6145 118.715C70.2902 118.826 69.9682 118.936 69.6406 119.062C69.1434 119.259 68.6339 119.423 68.1153 119.553C68.6866 119.091 69.2105 118.593 69.7035 118.12L70.1226 117.719C70.9718 116.924 71.8872 116.075 72.8191 115.304L73.1379 115.034C73.5918 114.555 74.1742 114.217 74.8153 114.06C75.668 113.998 76.5205 114.182 77.2715 114.59C77.8176 114.819 78.4038 114.937 78.9958 114.937C79.5879 114.937 80.174 114.819 80.7202 114.59C81.4722 114.181 82.3259 113.997 83.1796 114.06C83.8197 114.217 84.401 114.555 84.8538 115.034L85.1725 115.304C86.1089 116.076 87.0198 116.924 87.8691 117.719L88.2881 118.12C88.78 118.593 89.305 119.091 89.8785 119.553C89.3587 119.423 88.8481 119.259 88.3499 119.062" fill="#DBAF46"/>
<path d="M86.2476 128.516C86.1583 128.659 86.034 128.777 85.8863 128.859C85.7387 128.941 85.5726 128.983 85.4039 128.983C85.2227 128.983 85.0453 128.931 84.8921 128.834C83.084 127.859 81.0507 127.377 78.9972 127.438C76.9447 127.377 74.9125 127.859 73.1056 128.834C72.9957 128.908 72.8721 128.958 72.7422 128.983C72.6123 129.007 72.4788 129.005 72.3497 128.977C72.2205 128.949 72.0983 128.895 71.9904 128.819C71.8825 128.743 71.7911 128.645 71.7215 128.533C71.652 128.421 71.6058 128.295 71.5857 128.165C71.5656 128.034 71.572 127.901 71.6045 127.773C71.637 127.645 71.695 127.524 71.775 127.419C71.8549 127.314 71.9553 127.226 72.07 127.16C74.1902 125.996 76.5804 125.414 78.9983 125.472C81.4162 125.414 83.8065 125.996 85.9266 127.16C86.0368 127.228 86.1325 127.317 86.2083 127.422C86.2841 127.526 86.3386 127.645 86.3685 127.771C86.3984 127.897 86.4032 128.028 86.3826 128.155C86.3621 128.283 86.3155 128.405 86.2476 128.516Z" fill="#DBAF46"/>
<path d="M70.0053 91.6097C68.9901 90.1576 67.64 88.9715 66.0692 88.1518C64.4984 87.332 62.7533 86.9028 60.9815 86.9004C59.7793 86.9194 58.5906 87.1567 57.4733 87.6007C57.408 87.6246 57.3439 87.6519 57.2814 87.6823C55.0602 88.6826 53.2087 90.3544 51.9875 92.4622C51.909 92.5887 51.8562 92.7295 51.8323 92.8765C51.8084 93.0235 51.8138 93.1737 51.8483 93.3186C51.8827 93.4635 51.9455 93.6001 52.033 93.7206C52.1205 93.841 52.231 93.943 52.3581 94.0206C52.5349 94.1311 52.7397 94.1885 52.9481 94.186C53.1423 94.1889 53.3338 94.141 53.5037 94.0469C53.6735 93.9529 53.8159 93.8161 53.9165 93.65C54.6699 92.3812 55.6887 91.2901 56.9031 90.4517C57.0335 90.8346 57.2157 91.1979 57.4446 91.5314C57.3178 91.5479 57.1876 91.5667 57.0575 91.5909C56.9102 91.612 56.7684 91.6619 56.6404 91.7378C56.5124 91.8137 56.4006 91.9141 56.3114 92.0332C56.2222 92.1523 56.1573 92.2879 56.1205 92.4321C56.0837 92.5763 56.0757 92.7263 56.0969 92.8736C56.1461 93.1699 56.3083 93.4355 56.5494 93.6147C56.7904 93.7938 57.0916 93.8725 57.3894 93.8342C59.9644 93.484 62.5768 93.5148 65.1427 93.9257C65.2014 93.9383 65.2613 93.9445 65.3214 93.9445C65.6075 93.9441 65.883 93.836 66.093 93.6417C66.303 93.4474 66.4321 93.1812 66.4546 92.8959C66.4771 92.6107 66.3914 92.3275 66.2145 92.1026C66.0376 91.8778 65.7825 91.7278 65.5 91.6825C65.3214 91.6527 65.1372 91.6284 64.9486 91.6042C65.2039 91.245 65.4053 90.8504 65.5464 90.4329C66.571 91.0456 67.4463 91.879 68.1084 92.8725C68.279 93.1148 68.5375 93.281 68.8289 93.3357C69.1202 93.3904 69.4214 93.3293 69.6683 93.1654C69.9153 93.0015 70.0886 92.7477 70.1513 92.458C70.214 92.1683 70.1612 91.8655 70.0042 91.6141M61.1911 91.27C60.6754 91.2618 60.1771 91.0818 59.7753 90.7583C59.3736 90.4349 59.0913 89.9865 58.9732 89.4844C59.6799 89.2792 60.4122 89.1752 61.1481 89.1756C61.9304 89.1779 62.7085 89.292 63.4586 89.5142C63.3328 90.0188 63.0409 90.4664 62.6297 90.7849C62.2186 91.1034 61.7122 91.2743 61.1922 91.27" fill="#DBAF46"/>
<path d="M106.287 92.4622C105.065 90.3549 103.214 88.6834 100.993 87.6823C100.931 87.6526 100.868 87.625 100.803 87.6007C99.6848 87.1569 98.495 86.9196 97.2918 86.9004C95.52 86.9028 93.7749 87.332 92.2041 88.1518C90.6334 88.9715 89.2833 90.1576 88.268 91.6097C88.1804 91.7341 88.1187 91.8747 88.0863 92.0234C88.054 92.172 88.0519 92.3256 88.0799 92.4751C88.108 92.6246 88.1657 92.767 88.2498 92.8938C88.3338 93.0206 88.4424 93.1293 88.5691 93.2134C88.6959 93.2975 88.8382 93.3554 88.9877 93.3836C89.1371 93.4117 89.2907 93.4097 89.4394 93.3775C89.5881 93.3453 89.7288 93.2836 89.8532 93.1961C89.9777 93.1087 90.0833 92.9971 90.1639 92.8681C90.8261 91.8739 91.7022 91.0404 92.7281 90.4285C92.8672 90.8464 93.0679 91.2412 93.3236 91.5998C93.1428 91.624 92.9553 91.6483 92.7722 91.6781C92.4897 91.7233 92.2346 91.8733 92.0577 92.0982C91.8808 92.3231 91.7951 92.6063 91.8176 92.8915C91.8402 93.1768 91.9693 93.443 92.1793 93.6373C92.3893 93.8316 92.6648 93.9397 92.9509 93.9401C93.0109 93.9401 93.0708 93.9338 93.1295 93.9213C95.6954 93.5104 98.3079 93.4796 100.883 93.8298C101.181 93.8681 101.482 93.7894 101.723 93.6103C101.964 93.4311 102.126 93.1655 102.175 92.8692C102.197 92.7219 102.189 92.5718 102.152 92.4276C102.115 92.2834 102.05 92.1479 101.961 92.0288C101.872 91.9097 101.76 91.8093 101.632 91.7334C101.504 91.6575 101.362 91.6076 101.215 91.5865C101.085 91.5623 100.956 91.5435 100.825 91.527C101.056 91.1942 101.239 90.8307 101.369 90.4473C102.584 91.2857 103.602 92.3768 104.356 93.6456C104.456 93.8114 104.598 93.9481 104.768 94.0421C104.937 94.1362 105.128 94.1842 105.322 94.1816C105.531 94.1844 105.737 94.1269 105.914 94.0162C106.041 93.9384 106.151 93.8363 106.239 93.7158C106.326 93.5953 106.389 93.4587 106.423 93.314C106.457 93.1692 106.463 93.019 106.439 92.8721C106.416 92.7252 106.363 92.5844 106.285 92.4578M97.0789 91.2623C96.5583 91.2673 96.0512 91.0968 95.6394 90.7783C95.2276 90.4597 94.9351 90.0117 94.8092 89.5065C95.5594 89.2842 96.3374 89.1702 97.1198 89.1679C97.855 89.1672 98.5865 89.2712 99.2924 89.4767C99.1762 89.9787 98.8951 90.4274 98.4941 90.751C98.0931 91.0746 97.5942 91.2546 97.0789 91.2623Z" fill="#DBAF46"/>
<path d="M69.2731 83.379C69.1583 83.4746 69.0258 83.5467 68.883 83.591C68.7403 83.6353 68.5903 83.651 68.4415 83.6372C68.2927 83.6233 68.1481 83.5802 68.016 83.5104C67.8839 83.4405 67.7669 83.3453 67.6717 83.2301C66.2622 81.5261 63.1499 80.4409 59.7023 80.4409C59.6295 80.4409 59.5611 80.4409 59.4817 80.4409C55.2268 80.4982 51.4307 82.1294 49.3154 84.8149C49.2089 84.9495 49.0732 85.0581 48.9187 85.1326C48.7641 85.2071 48.5947 85.2455 48.4231 85.245C48.1685 85.2448 47.921 85.1603 47.7195 85.0046C47.4843 84.8173 47.3329 84.5445 47.2984 84.2458C47.2639 83.9472 47.3491 83.647 47.5353 83.411C50.0642 80.1949 54.5254 78.2274 59.4464 78.169C63.7256 78.1259 67.5162 79.4924 69.4121 81.7776C69.5077 81.8919 69.5798 82.024 69.6241 82.1662C69.6684 82.3085 69.6841 82.4582 69.6703 82.6066C69.6564 82.7549 69.6133 82.8991 69.5434 83.0307C69.4736 83.1624 69.3783 83.2788 69.2632 83.3735" fill="#DBAF46"/>
<path d="M110.277 85.0134C110.075 85.1691 109.828 85.2536 109.573 85.2538C109.402 85.2543 109.232 85.2159 109.078 85.1413C108.923 85.0668 108.788 84.9582 108.681 84.8237C106.568 82.1371 102.771 80.5059 98.5158 80.4497C98.4485 80.4497 98.3724 80.4497 98.3051 80.4497C94.8641 80.4497 91.7452 81.5316 90.3302 83.2389C90.1353 83.4609 89.8615 83.5983 89.567 83.6219C89.2724 83.6455 88.9803 83.5533 88.7526 83.3651C88.5248 83.1768 88.3794 82.9072 88.3472 82.6135C88.315 82.3198 88.3984 82.0251 88.5799 81.7919C90.4703 79.499 94.2653 78.1303 98.5444 78.1755C103.475 78.2373 107.937 80.2015 110.465 83.4153C110.65 83.653 110.733 83.9535 110.697 84.2521C110.662 84.5506 110.51 84.8232 110.276 85.0112" fill="#DBAF46"/>
<path d="M76.5034 106.413C75.952 106.578 75.1105 107.035 74.988 107.459C74.9046 107.652 74.7795 107.823 74.622 107.961C74.4644 108.099 74.2782 108.201 74.0767 108.259C73.8752 108.316 73.6634 108.329 73.4566 108.295C73.2497 108.261 73.053 108.182 72.8804 108.063C69.864 105.692 71.4169 102.834 72.4393 100.942C72.8902 100.234 73.2176 99.4534 73.4076 98.6351C73.4385 98.3248 73.5913 98.0394 73.8326 97.8418C74.0739 97.6442 74.3838 97.5505 74.6941 97.5813C75.0045 97.6122 75.2898 97.7651 75.4875 98.0063C75.6851 98.2476 75.7788 98.5575 75.7479 98.8678C75.5475 100.005 75.1268 101.091 74.5094 102.066C73.5631 103.813 73.1727 104.75 73.7374 105.595C74.3569 105.033 75.0932 104.615 75.8935 104.37C76.0278 104.33 76.1686 104.317 76.3079 104.331C76.4473 104.346 76.5824 104.388 76.7056 104.454C76.8288 104.521 76.9377 104.611 77.026 104.72C77.1143 104.829 77.1803 104.954 77.2203 105.088C77.2602 105.222 77.2734 105.363 77.2589 105.503C77.2445 105.642 77.2027 105.777 77.1361 105.9C77.0694 106.023 76.9791 106.132 76.8704 106.221C76.7616 106.309 76.6366 106.375 76.5023 106.415" fill="#DBAF46"/>
<path d="M85.3895 108.061C85.1814 108.223 84.9254 108.312 84.6616 108.313C84.3722 108.327 84.0855 108.252 83.8392 108.1C83.5929 107.947 83.3986 107.723 83.2819 107.458C83.1606 107.034 82.3301 106.576 81.7754 106.412C81.6371 106.376 81.5074 106.312 81.3941 106.225C81.2808 106.138 81.1862 106.029 81.1159 105.904C81.0456 105.78 81.0009 105.643 80.9847 105.501C80.9685 105.359 80.981 105.215 81.0214 105.078C81.0619 104.941 81.1294 104.813 81.2201 104.703C81.3109 104.592 81.4229 104.501 81.5495 104.435C81.6761 104.368 81.8147 104.328 81.9572 104.317C82.0996 104.305 82.243 104.322 82.3787 104.367C83.1798 104.613 83.9175 105.031 84.5403 105.592C85.1006 104.748 84.7113 103.812 83.7683 102.063C83.1502 101.088 82.7294 100.001 82.5298 98.8645C82.4986 98.5539 82.5921 98.2436 82.7898 98.0019C82.9874 97.7603 83.2729 97.607 83.5836 97.5758C83.8942 97.5447 84.2045 97.6382 84.4462 97.8358C84.6879 98.0335 84.8411 98.319 84.8723 98.6296C85.0627 99.4494 85.3913 100.231 85.8439 100.94C86.8663 102.831 88.4136 105.683 85.3951 108.06" fill="#DBAF46"/>
</g>
</svg>
